<svg width="41" height="42" viewBox="0 0 41 42" fill="none" xmlns="http://www.w3.org/2000/svg">
<path d="M20.6574 0.394043C31.5472 0.394043 40.3745 9.22141 40.3745 20.1112V27.5327C40.3745 28.2652 40.1705 28.9832 39.7853 29.6062C39.4001 30.2293 38.849 30.7327 38.1938 31.0601L32.4877 33.9132V35.8849C32.4877 37.3937 31.9113 38.8455 30.8762 39.9432C29.8411 41.0409 28.4257 41.7017 26.9195 41.7902L26.4739 41.8C26.5173 41.5853 26.5463 41.368 26.5607 41.1494L26.5725 40.8142V39.8283C26.5728 38.8334 26.1971 37.8752 25.5206 37.1457C24.8441 36.4162 23.9169 35.9694 22.9248 35.8948L22.6291 35.8849H18.6857C17.6908 35.8846 16.7325 36.2603 16.003 36.9368C15.2736 37.6133 14.8267 38.5405 14.7521 39.5326L14.7422 39.8283V40.8142C14.7422 41.1513 14.7758 41.4826 14.8408 41.8H14.7422C13.1734 41.8 11.6689 41.1768 10.5596 40.0675C9.45029 38.9582 8.82709 37.4537 8.82709 35.8849V33.9132L3.12095 31.0601C2.46542 30.7325 1.91414 30.2288 1.52894 29.6054C1.14375 28.982 0.93989 28.2636 0.940232 27.5307V20.1112C0.940232 9.22141 9.7676 0.394043 20.6574 0.394043ZM20.6574 4.33747C16.5593 4.33752 12.6221 5.93246 9.67945 8.78461C6.73677 11.6368 5.01961 15.5222 4.89155 19.6183L4.88366 20.1112V27.5327L12.7705 31.4761V34.6131L12.9184 34.4475C14.315 32.9484 16.241 32.0529 18.2874 31.9513L18.6857 31.9415L22.773 31.9434L23.2127 31.9632C25.1825 32.1091 26.9393 32.9687 28.2406 34.2839L28.5442 34.6131V31.4761L36.4311 27.5327V20.1112C36.4311 15.9277 34.7692 11.9156 31.8111 8.95749C28.8529 5.99934 24.8408 4.33747 20.6574 4.33747ZM12.7705 18.1395C13.8164 18.1395 14.8194 18.5549 15.5589 19.2945C16.2985 20.034 16.7139 21.037 16.7139 22.0829C16.7139 23.1288 16.2985 24.1318 15.5589 24.8713C14.8194 25.6109 13.8164 26.0263 12.7705 26.0263C11.7247 26.0263 10.7216 25.6109 9.98209 24.8713C9.24256 24.1318 8.82709 23.1288 8.82709 22.0829C8.82709 21.037 9.24256 20.034 9.98209 19.2945C10.7216 18.5549 11.7247 18.1395 12.7705 18.1395ZM28.5442 18.1395C29.5901 18.1395 30.5931 18.5549 31.3327 19.2945C32.0722 20.034 32.4877 21.037 32.4877 22.0829C32.4877 23.1288 32.0722 24.1318 31.3327 24.8713C30.5931 25.6109 29.5901 26.0263 28.5442 26.0263C27.4984 26.0263 26.4953 25.6109 25.7558 24.8713C25.0163 24.1318 24.6008 23.1288 24.6008 22.0829C24.6008 21.037 25.0163 20.034 25.7558 19.2945C26.4953 18.5549 27.4984 18.1395 28.5442 18.1395Z" fill="white"/>
</svg>
