<svg width="35" height="42" viewBox="0 0 35 42" fill="none" xmlns="http://www.w3.org/2000/svg">
<path d="M17.3331 0.715332C21.778 0.715332 26.0408 2.48107 29.1839 5.6241C32.3269 8.76713 34.0926 13.03 34.0926 17.4749C34.0926 30.291 23.2482 41.1355 17.3331 41.1355C11.4179 41.1355 0.573486 30.291 0.573486 17.4749C0.573486 13.03 2.33922 8.76713 5.48225 5.6241C8.62528 2.48107 12.8881 0.715332 17.3331 0.715332V0.715332ZM17.3331 4.65876C13.934 4.65876 10.6742 6.00903 8.27068 8.41252C5.86718 10.816 4.51692 14.0759 4.51692 17.4749C4.51692 26.9273 12.7291 37.192 17.3331 37.192C21.937 37.192 30.1492 26.9273 30.1492 17.4749C30.1492 14.0759 28.7989 10.816 26.3954 8.41252C23.9919 6.00903 20.7321 4.65876 17.3331 4.65876V4.65876ZM28.1775 18.4608C28.493 18.4608 28.8065 18.4765 29.1141 18.5101C29.2538 19.826 29.0974 21.1565 28.6563 22.4042C28.2152 23.6519 27.5006 24.7851 26.5649 25.7209C25.6291 26.6566 24.4959 27.3712 23.2482 27.8123C22.0006 28.2534 20.67 28.4098 19.3541 28.27C19.2227 27.0328 19.3531 25.7817 19.7367 24.5981C20.1202 23.4145 20.7485 22.3248 21.5805 21.3998C22.4126 20.4747 23.4299 19.735 24.5665 19.2287C25.703 18.7224 26.9333 18.4607 28.1775 18.4608V18.4608ZM6.48863 18.4608C7.73284 18.4607 8.96315 18.7224 10.0997 19.2287C11.2362 19.735 12.2535 20.4747 13.0856 21.3998C13.9177 22.3248 14.5459 23.4145 14.9295 24.5981C15.313 25.7817 15.4434 27.0328 15.3121 28.27C13.9961 28.4098 12.6656 28.2534 11.4179 27.8123C10.1702 27.3712 9.03697 26.6566 8.10122 25.7209C7.16547 24.7851 6.45089 23.6519 6.00981 22.4042C5.56873 21.1565 5.41233 19.826 5.55207 18.5101C5.85768 18.4765 6.17316 18.4608 6.48863 18.4608Z" fill="#0B0914"/>
</svg>
