<svg width="40" height="41" viewBox="0 0 40 41" fill="none" xmlns="http://www.w3.org/2000/svg">
<path d="M35.8269 20.4325C35.8269 16.249 34.1651 12.2369 31.2069 9.27878C28.2488 6.32063 24.2367 4.65876 20.0532 4.65876C15.8698 4.65876 11.8576 6.32063 8.8995 9.27878C5.94136 12.2369 4.27949 16.249 4.27949 20.4325V28.3193H10.1946C10.7176 28.3193 11.2191 28.5271 11.5888 28.8968C11.9586 29.2666 12.1663 29.7681 12.1663 30.291V36.2062H27.9401V30.291C27.9401 29.7681 28.1478 29.2666 28.5176 28.8968C28.8873 28.5271 29.3888 28.3193 29.9118 28.3193H35.8269V20.4325ZM31.8835 32.2628V38.1779C31.8835 38.7008 31.6758 39.2024 31.306 39.5721C30.9362 39.9419 30.4347 40.1496 29.9118 40.1496H10.1946C9.6717 40.1496 9.17019 39.9419 8.80042 39.5721C8.43065 39.2024 8.22292 38.7008 8.22292 38.1779V32.2628H2.30777C1.78484 32.2628 1.28333 32.055 0.913561 31.6853C0.543793 31.3155 0.33606 30.814 0.33606 30.291V20.4325C0.33606 9.5427 9.16343 0.715332 20.0532 0.715332C30.943 0.715332 39.7703 9.5427 39.7703 20.4325V30.291C39.7703 30.814 39.5626 31.3155 39.1928 31.6853C38.8231 32.055 38.3216 32.2628 37.7986 32.2628H31.8835ZM11.1805 24.3759C10.7921 24.3759 10.4075 24.2994 10.0487 24.1508C9.68985 24.0021 9.3638 23.7843 9.08917 23.5097C8.81453 23.235 8.59668 22.909 8.44805 22.5501C8.29942 22.1913 8.22292 21.8067 8.22292 21.4183C8.22292 21.0299 8.29942 20.6453 8.44805 20.2865C8.59668 19.9277 8.81453 19.6017 9.08917 19.327C9.3638 19.0524 9.68985 18.8345 10.0487 18.6859C10.4075 18.5373 10.7921 18.4608 11.1805 18.4608C11.9649 18.4608 12.7172 18.7724 13.2718 19.327C13.8265 19.8817 14.1381 20.6339 14.1381 21.4183C14.1381 22.2027 13.8265 22.955 13.2718 23.5097C12.7172 24.0643 11.9649 24.3759 11.1805 24.3759ZM28.9259 24.3759C28.5375 24.3759 28.1529 24.2994 27.7941 24.1508C27.4353 24.0021 27.1092 23.7843 26.8346 23.5097C26.56 23.235 26.3421 22.909 26.1935 22.5501C26.0448 22.1913 25.9683 21.8067 25.9683 21.4183C25.9683 21.0299 26.0448 20.6453 26.1935 20.2865C26.3421 19.9277 26.56 19.6017 26.8346 19.327C27.1092 19.0524 27.4353 18.8345 27.7941 18.6859C28.1529 18.5373 28.5375 18.4608 28.9259 18.4608C29.7103 18.4608 30.4626 18.7724 31.0172 19.327C31.5719 19.8817 31.8835 20.6339 31.8835 21.4183C31.8835 22.2027 31.5719 22.955 31.0172 23.5097C30.4626 24.0643 29.7103 24.3759 28.9259 24.3759Z" fill="#0B0914"/>
</svg>
