<svg width="26" height="28" viewBox="0 0 26 28" fill="none" xmlns="http://www.w3.org/2000/svg">
<path d="M9.8002 25.1992H18.2002C19.3141 25.1992 20.3824 24.7567 21.17 23.9691C21.9577 23.1814 22.4002 22.1131 22.4002 20.9992V12.5992C22.4002 12.2279 22.5477 11.8718 22.8102 11.6093C23.0728 11.3467 23.4289 11.1992 23.8002 11.1992C24.1715 11.1992 24.5276 11.3467 24.7901 11.6093C25.0527 11.8718 25.2002 12.2279 25.2002 12.5992V20.9992C25.2002 22.8557 24.4627 24.6362 23.1499 25.949C21.8372 27.2617 20.0567 27.9992 18.2002 27.9992H9.8002C9.42889 27.9992 9.0728 27.8517 8.81025 27.5892C8.54769 27.3266 8.4002 26.9705 8.4002 26.5992C8.4002 26.2279 8.54769 25.8718 8.81025 25.6093C9.0728 25.3467 9.42889 25.1992 9.8002 25.1992Z" fill="black"/>
<path d="M19.6 9.716C19.5854 9.58739 19.5573 9.46068 19.516 9.338V9.212C19.4487 9.06805 19.3589 8.93573 19.25 8.82L10.85 0.42C10.7343 0.311103 10.6019 0.221313 10.458 0.154H10.332L9.884 0H4.2C3.08609 0 2.0178 0.442499 1.23015 1.23015C0.442499 2.0178 0 3.08609 0 4.2V18.2C0 19.3139 0.442499 20.3822 1.23015 21.1698C2.0178 21.9575 3.08609 22.4 4.2 22.4H15.4C16.5139 22.4 17.5822 21.9575 18.3698 21.1698C19.1575 20.3822 19.6 19.3139 19.6 18.2V9.716ZM11.2 4.774L14.826 8.4H12.6C12.2287 8.4 11.8726 8.2525 11.6101 7.98995C11.3475 7.7274 11.2 7.3713 11.2 7V4.774ZM16.8 18.2C16.8 18.5713 16.6525 18.9274 16.3899 19.1899C16.1274 19.4525 15.7713 19.6 15.4 19.6H4.2C3.8287 19.6 3.4726 19.4525 3.21005 19.1899C2.9475 18.9274 2.8 18.5713 2.8 18.2V4.2C2.8 3.8287 2.9475 3.4726 3.21005 3.21005C3.4726 2.9475 3.8287 2.8 4.2 2.8H8.4V7C8.4 8.11391 8.8425 9.1822 9.63015 9.96985C10.4178 10.7575 11.4861 11.2 12.6 11.2H16.8V18.2Z" fill="black"/>
</svg>
