<svg width="25" height="25" viewBox="0 0 25 25" fill="none" xmlns="http://www.w3.org/2000/svg">
<path d="M22.3214 0H2.67857C1.19922 0 0 1.19922 0 2.67857V22.3214C0 23.8008 1.19922 25 2.67857 25H22.3214C23.8008 25 25 23.8008 25 22.3214V2.67857C25 1.19922 23.8008 0 22.3214 0ZM22.3214 22.3214H2.67857V2.67857H22.3214V22.3214ZM20.3201 8.83237L10.689 18.3862C10.4265 18.6466 10.0025 18.6449 9.74202 18.3824L4.67612 13.2754C4.41568 13.0129 4.41735 12.5889 4.67997 12.3284L5.94777 11.0708C6.21032 10.8104 6.63432 10.8121 6.89475 11.0747L10.2314 14.4383L18.1193 6.61378C18.3819 6.35335 18.8059 6.35502 19.0663 6.61758L20.3239 7.88532C20.5843 8.14793 20.5826 8.57193 20.3201 8.83237Z" fill="black"/>
</svg>
