<svg width="28" height="25" viewBox="0 0 28 25" fill="none" xmlns="http://www.w3.org/2000/svg">
<path d="M25.9271 0.00255972C25.5813 0.0275672 25.2419 0.108206 24.9221 0.24133H24.9178C24.6108 0.362321 23.1512 0.972632 20.9323 1.89773L12.9806 5.2266C7.27481 7.61431 1.66598 9.96561 1.66598 9.96561L1.73277 9.93991C1.73277 9.93991 1.34607 10.0663 0.942126 10.3414C0.692576 10.4993 0.477837 10.7058 0.310904 10.9485C0.112705 11.2376 -0.0467164 11.6798 0.012528 12.137C0.109473 12.9101 0.613589 13.3737 0.975518 13.6296C1.34176 13.8887 1.69076 14.0097 1.69076 14.0097H1.69938L6.9592 15.7711C7.1951 16.5238 8.56203 20.9908 8.89057 22.0198C9.08446 22.6344 9.27296 23.0188 9.50886 23.3121C9.62304 23.462 9.75661 23.5873 9.91711 23.688C10.0005 23.7362 10.0895 23.7743 10.1821 23.8015L10.1282 23.7886C10.1444 23.7929 10.1573 23.8057 10.1692 23.81C10.2123 23.8218 10.2413 23.8261 10.2963 23.8346C11.1289 24.0852 11.7979 23.5712 11.7979 23.5712L11.8356 23.5413L14.941 20.7306L20.1459 24.6998L20.2644 24.7501C21.3491 25.2234 22.4478 24.96 23.0284 24.4953C23.6133 24.0274 23.8406 23.4288 23.8406 23.4288L23.8783 23.3325L27.9005 2.85067C28.0147 2.34529 28.0437 1.87204 27.9177 1.4127C27.7877 0.947818 27.4877 0.547992 27.0764 0.291654C26.7311 0.0829867 26.3307 -0.017732 25.9271 0.00255972ZM25.8183 2.19754C25.814 2.26499 25.8269 2.2575 25.7968 2.38705V2.39883L21.8123 22.6676C21.7951 22.6965 21.766 22.7596 21.6863 22.8228C21.6023 22.8892 21.5355 22.931 21.1854 22.7928L14.8193 17.9414L10.9738 21.4255L11.7817 16.2968L22.1829 6.6603C22.6116 6.26413 22.4683 6.18061 22.4683 6.18061C22.4985 5.69451 21.8209 6.03821 21.8209 6.03821L8.70529 14.1146L8.70099 14.0932L2.41462 11.9893V11.985L2.39846 11.9818C2.40948 11.9781 2.42027 11.9738 2.43078 11.9689L2.46525 11.9518L2.49864 11.94C2.49864 11.94 8.11177 9.58871 13.8175 7.20101C16.6742 6.00501 19.5524 4.80046 21.766 3.87107C23.0788 3.32179 24.3929 2.77573 25.7084 2.23287C25.7968 2.19861 25.7548 2.19861 25.8183 2.19861V2.19754Z" fill="black"/>
</svg>
