<svg width="30" height="26" viewBox="0 0 30 26" fill="none" xmlns="http://www.w3.org/2000/svg">
<path d="M2.90564 0H26.1527C27.7553 0 29.0586 1.29567 29.0586 2.88889V23.1111C29.0586 24.7043 27.7553 26 26.1527 26H2.90564C1.30304 26 -0.000244141 24.7043 -0.000244141 23.1111V2.88889C-0.000244141 1.29567 1.30304 0 2.90564 0ZM7.26446 4.33333H4.35858V7.22222H7.26446V4.33333ZM11.6233 4.33333H8.7174V7.22222H11.6233V4.33333ZM26.1527 23.1111V10.1111H2.90418L2.90273 23.1111H26.1527Z" fill="black"/>
<path fill-rule="evenodd" clip-rule="evenodd" d="M6.13231 13.4609C6.13231 13.0467 6.4681 12.7109 6.88231 12.7109H19.1176C19.5318 12.7109 19.8676 13.0467 19.8676 13.4609C19.8676 13.8752 19.5318 14.2109 19.1176 14.2109H6.88231C6.4681 14.2109 6.13231 13.8752 6.13231 13.4609ZM6.13231 19.5786C6.13231 19.1644 6.4681 18.8286 6.88231 18.8286H13C13.4142 18.8286 13.75 19.1644 13.75 19.5786C13.75 19.9928 13.4142 20.3286 13 20.3286H6.88231C6.4681 20.3286 6.13231 19.9928 6.13231 19.5786Z" fill="black"/>
</svg>
