<svg width="32" height="26" viewBox="0 0 32 26" fill="none" xmlns="http://www.w3.org/2000/svg">
<path d="M30.6667 11.713L24 11.7C23.2667 11.7 22.6667 12.285 22.6667 13V24.7C22.6667 25.415 23.2667 26 24 26H30.6667C31.4 26 32 25.415 32 24.7V13C32 12.285 31.4 11.713 30.6667 11.713ZM30.6667 23.4H24V14.3H30.6667V23.4ZM26.6667 0H2.66667C1.2 0 0 1.17 0 2.6V18.2C0 19.63 1.2 20.8 2.66667 20.8H12V23.4H10.6667C9.93333 23.4 9.33333 23.985 9.33333 24.7C9.33333 25.415 9.93333 26 10.6667 26H18.6667C19.4 26 20 25.415 20 24.7C20 23.985 19.4 23.4 18.6667 23.4H17.3333V20.8H18.6667C19.4 20.8 20 20.215 20 19.5C20 18.785 19.4 18.2 18.6667 18.2H4C3.26667 18.2 2.66667 17.615 2.66667 16.9V3.9C2.66667 3.185 3.26667 2.6 4 2.6H25.3333C26.0667 2.6 26.6667 3.185 26.6667 3.9V7.8C26.6667 8.515 27.2667 9.1 28 9.1C28.7333 9.1 29.3333 8.515 29.3333 7.8V2.6C29.3333 1.17 28.1333 0 26.6667 0Z" fill="black"/>
</svg>
