<svg width="28" height="25" viewBox="0 0 28 25" fill="none" xmlns="http://www.w3.org/2000/svg">
<path d="M27.4084 0.381552C27.2277 0.234935 27.0166 0.130802 26.7904 0.0768057C26.5643 0.0228095 26.329 0.0203235 26.1018 0.0695309L14 2.79971L1.89818 0.0383289C1.66739 -0.0139512 1.42774 -0.0127341 1.19748 0.041887C0.96722 0.0965081 0.75242 0.203094 0.569426 0.353532C0.386433 0.50397 0.24007 0.694296 0.141476 0.910023C0.042882 1.12575 -0.00534355 1.36119 0.000469577 1.59843V20.6317C-0.00831845 20.9923 0.107776 21.3449 0.328991 21.6293C0.550206 21.9138 0.86287 22.1126 1.21376 22.1918L13.6578 25H14.3422L26.7862 22.1918C27.1371 22.1126 27.4498 21.9138 27.671 21.6293C27.8922 21.3449 28.0083 20.9923 27.9995 20.6317V1.59843C27.9985 1.3641 27.9448 1.13302 27.8424 0.922348C27.7401 0.71168 27.5918 0.526839 27.4084 0.381552ZM3.11148 3.54856L12.4445 5.6547V21.4898L3.11148 19.3836V3.54856ZM24.8885 19.3836L15.5555 21.4898V5.6547L24.8885 3.54856V19.3836Z" fill="black"/>
</svg>
